<svg width="24" height="24" viewBox="0 0 24 24" fill="none" xmlns="http://www.w3.org/2000/svg">
<path d="M17.5 12C18.9587 12 20.3576 12.5795 21.3891 13.6109C22.4205 14.6424 23 16.0413 23 17.5C23 18.9587 22.4205 20.3576 21.3891 21.3891C20.3576 22.4205 18.9587 23 17.5 23C16.0413 23 14.6424 22.4205 13.6109 21.3891C12.5795 20.3576 12 18.9587 12 17.5C12 16.0413 12.5795 14.6424 13.6109 13.6109C14.6424 12.5795 16.0413 12 17.5 12ZM15.024 15.024C14.9303 15.1178 14.8776 15.2449 14.8776 15.3775C14.8776 15.5101 14.9303 15.6372 15.024 15.731L16.793 17.501L15.026 19.267C14.9795 19.3134 14.9426 19.3685 14.9174 19.4292C14.8923 19.4899 14.8793 19.5549 14.8792 19.6206C14.8792 19.6863 14.8921 19.7514 14.9172 19.8121C14.9423 19.8728 14.9791 19.928 15.0255 19.9745C15.0719 20.021 15.127 20.0579 15.1877 20.0831C15.2484 20.1082 15.3134 20.1212 15.3791 20.1213C15.4448 20.1213 15.5099 20.1084 15.5706 20.0833C15.6313 20.0582 15.6865 20.0214 15.733 19.975L17.5 18.208L19.27 19.977C19.3161 20.0248 19.3713 20.0628 19.4323 20.0891C19.4933 20.1153 19.5589 20.129 19.6253 20.1296C19.6917 20.1302 19.7575 20.1176 19.819 20.0924C19.8804 20.0673 19.9363 20.0301 19.9832 19.9832C20.0301 19.9363 20.0673 19.8804 20.0924 19.819C20.1176 19.7575 20.1302 19.6917 20.1296 19.6253C20.129 19.5589 20.1153 19.4933 20.0891 19.4323C20.0628 19.3713 20.0248 19.3161 19.977 19.27L18.208 17.5L19.979 15.73C20.0701 15.6357 20.1205 15.5094 20.1193 15.3783C20.1182 15.2472 20.0656 15.1218 19.9729 15.0291C19.8802 14.9364 19.7548 14.8838 19.6237 14.8827C19.4926 14.8815 19.3663 14.9319 19.272 15.023L17.501 16.793L15.731 15.023C15.6372 14.9293 15.5101 14.8766 15.3775 14.8766C15.2449 14.8766 15.1178 14.9293 15.024 15.023V15.024ZM17.75 3C18.612 3 19.4386 3.34241 20.0481 3.9519C20.6576 4.5614 21 5.38805 21 6.25L21.001 12.023C20.5335 11.723 20.0294 11.4843 19.501 11.313L19.5 8.5H4.5V17.75C4.5 18.716 5.284 19.5 6.25 19.5H11.314C11.486 20.034 11.726 20.538 12.023 21.001L6.25 21C5.38805 21 4.5614 20.6576 3.9519 20.0481C3.34241 19.4386 3 18.612 3 17.75V6.25C3 5.38805 3.34241 4.5614 3.9519 3.9519C4.5614 3.34241 5.38805 3 6.25 3H17.75ZM17.75 4.5H6.25C5.78587 4.5 5.34075 4.68437 5.01256 5.01256C4.68437 5.34075 4.5 5.78587 4.5 6.25V7H19.5V6.25C19.5 5.78587 19.3156 5.34075 18.9874 5.01256C18.6592 4.68437 18.2141 4.5 17.75 4.5Z" fill="white"/>
</svg>
