<svg width="19" height="19" viewBox="0 0 19 19" fill="none" xmlns="http://www.w3.org/2000/svg">
<path d="M11.0833 3.95833C11.0833 3.53841 10.9164 3.13568 10.6195 2.83875C10.3226 2.54181 9.91984 2.375 9.49992 2.375C9.07999 2.375 8.67727 2.54181 8.38033 2.83875C8.0834 3.13568 7.91658 3.53841 7.91658 3.95833H11.0833ZM6.72909 3.95833C6.72909 3.59446 6.80075 3.23415 6.94 2.89798C7.07925 2.56181 7.28335 2.25635 7.54064 1.99906C7.79794 1.74176 8.10339 1.53766 8.43957 1.39842C8.77574 1.25917 9.13605 1.1875 9.49992 1.1875C9.86379 1.1875 10.2241 1.25917 10.5603 1.39842C10.8964 1.53766 11.2019 1.74176 11.4592 1.99906C11.7165 2.25635 11.9206 2.56181 12.0598 2.89798C12.1991 3.23415 12.2708 3.59446 12.2708 3.95833H16.8228C16.9803 3.95833 17.1313 4.02089 17.2427 4.13224C17.354 4.24359 17.4166 4.39461 17.4166 4.55208C17.4166 4.70956 17.354 4.86058 17.2427 4.97193C17.1313 5.08328 16.9803 5.14583 16.8228 5.14583H15.7778L15.3804 9.25854C15.0144 9.07347 14.6274 8.93313 14.2278 8.84054L14.5856 5.14583H4.41425L5.331 14.6197C5.3737 15.0604 5.57899 15.4694 5.90683 15.7669C6.23468 16.0645 6.66159 16.2293 7.10433 16.2292H8.49609C8.72274 16.6635 9.0101 17.0634 9.3495 17.4167H7.10433C6.36639 17.4167 5.65487 17.142 5.1085 16.646C4.56213 16.15 4.22008 15.4682 4.14904 14.7337L3.222 5.14583H2.177C2.01953 5.14583 1.86851 5.08328 1.75716 4.97193C1.64581 4.86058 1.58325 4.70956 1.58325 4.55208C1.58325 4.39461 1.64581 4.24359 1.75716 4.13224C1.86851 4.02089 2.01953 3.95833 2.177 3.95833H6.72909ZM17.4166 13.8542C17.4166 15.009 16.9578 16.1165 16.1413 16.933C15.3247 17.7496 14.2172 18.2083 13.0624 18.2083C11.9076 18.2083 10.8001 17.7496 9.98356 16.933C9.16699 16.1165 8.70825 15.009 8.70825 13.8542C8.70825 12.6994 9.16699 11.5919 9.98356 10.7753C10.8001 9.95874 11.9076 9.5 13.0624 9.5C14.2172 9.5 15.3247 9.95874 16.1413 10.7753C16.9578 11.5919 17.4166 12.6994 17.4166 13.8542ZM11.7593 11.9906C11.685 11.9163 11.5842 11.8745 11.4791 11.8745C11.374 11.8745 11.2732 11.9163 11.1988 11.9906C11.1245 12.0649 11.0828 12.1657 11.0828 12.2708C11.0828 12.3759 11.1245 12.4768 11.1988 12.5511L12.5027 13.8542L11.1988 15.1573C11.1245 15.2316 11.0828 15.3324 11.0828 15.4375C11.0828 15.5426 11.1245 15.6434 11.1988 15.7178C11.2732 15.7921 11.374 15.8338 11.4791 15.8338C11.5842 15.8338 11.685 15.7921 11.7593 15.7178L13.0624 14.4139L14.3655 15.7178C14.4023 15.7546 14.446 15.7837 14.4941 15.8037C14.5422 15.8236 14.5937 15.8338 14.6458 15.8338C14.6978 15.8338 14.7493 15.8236 14.7974 15.8037C14.8455 15.7837 14.8892 15.7546 14.926 15.7178C14.9628 15.6809 14.992 15.6373 15.0119 15.5892C15.0318 15.5411 15.0421 15.4895 15.0421 15.4375C15.0421 15.3855 15.0318 15.3339 15.0119 15.2858C14.992 15.2377 14.9628 15.1941 14.926 15.1573L13.6221 13.8542L14.926 12.5511C15.0003 12.4768 15.0421 12.3759 15.0421 12.2708C15.0421 12.1657 15.0003 12.0649 14.926 11.9906C14.8517 11.9163 14.7509 11.8745 14.6458 11.8745C14.5406 11.8745 14.4398 11.9163 14.3655 11.9906L13.0624 13.2945L11.7593 11.9906Z" fill="white"/>
</svg>
