<svg width="14" height="16" viewBox="0 0 14 16" fill="none" xmlns="http://www.w3.org/2000/svg">
<path d="M6.5 11.5L9.5 8.5M9.5 8.5L6.5 5.5M9.5 8.5H0.5" stroke="white" stroke-linecap="round" stroke-linejoin="round"/>
<path d="M1.5 6.49998V3.49198C1.5 2.96293 1.70961 2.45543 2.08296 2.08058C2.4563 1.70574 2.96295 1.49409 3.492 1.49198L11.444 1.45998C11.7067 1.45892 11.9671 1.50965 12.2102 1.60925C12.4533 1.70885 12.6744 1.85537 12.8609 2.04046C13.0474 2.22554 13.1956 2.44554 13.297 2.68791C13.3984 2.93027 13.4511 3.19025 13.452 3.45298L13.492 13.482C13.4931 13.7446 13.4424 14.0049 13.3428 14.248C13.2433 14.491 13.0968 14.7121 12.9119 14.8985C12.7269 15.085 12.507 15.2332 12.2648 15.3347C12.0225 15.4362 11.7626 15.4889 11.5 15.49H3.5C2.96957 15.49 2.46086 15.2793 2.08579 14.9042C1.71071 14.5291 1.5 14.0204 1.5 13.49V10.5" stroke="white" stroke-linecap="round" stroke-linejoin="round"/>
</svg>
