<svg width="35" height="34" viewBox="0 0 35 34" fill="none" xmlns="http://www.w3.org/2000/svg">
<path d="M15.5624 32.8167L1.26237 18.5167C1.0457 18.3 0.891871 18.0653 0.800871 17.8125C0.709871 17.5597 0.665093 17.2889 0.666538 17C0.666538 16.7111 0.712038 16.4403 0.803038 16.1875C0.894038 15.9347 1.04715 15.7 1.26237 15.4833L15.5624 1.18333C15.9596 0.786111 16.4565 0.578834 17.053 0.561501C17.6496 0.544167 18.1638 0.751444 18.5957 1.18333C19.029 1.58056 19.2551 2.07744 19.2739 2.674C19.2926 3.27056 19.0846 3.78478 18.6499 4.21667L8.03321 14.8333H32.2457C32.8596 14.8333 33.3745 15.0413 33.7905 15.4573C34.2065 15.8733 34.4138 16.3876 34.4124 17C34.4124 17.6139 34.2051 18.1288 33.7905 18.5448C33.376 18.9608 32.861 19.1681 32.2457 19.1667H8.03321L18.6499 29.7833C19.0471 30.1806 19.2551 30.6861 19.2739 31.3C19.2926 31.9139 19.0846 32.4194 18.6499 32.8167C18.2526 33.25 17.7471 33.4667 17.1332 33.4667C16.5193 33.4667 15.9957 33.25 15.5624 32.8167Z" fill="black"/>
</svg>
